<svg width="42" height="43" viewBox="0 0 42 43" fill="none" xmlns="http://www.w3.org/2000/svg">
<path fill-rule="evenodd" clip-rule="evenodd" d="M15.9509 3.47703C18.5479 -0.159009 23.9519 -0.159009 26.5492 3.47703L26.9627 4.05589C27.4196 4.69582 28.1872 5.03846 28.9687 4.95163L30.8116 4.74685C34.9594 4.28601 38.464 7.79065 38.0032 11.9383L37.7985 13.7813C37.7116 14.5629 38.0542 15.3303 38.6941 15.7874L39.273 16.2009C42.909 18.7979 42.909 24.2019 39.273 26.7992L38.6941 27.2127C38.0542 27.6696 37.7116 28.4372 37.7985 29.2187L38.0032 31.0616C38.464 35.2094 34.9594 38.714 30.8116 38.2532L28.9687 38.0485C28.1872 37.9616 27.4196 38.3042 26.9627 38.9441L26.5492 39.523C23.9519 43.159 18.5481 43.159 15.9509 39.523L15.5374 38.9441C15.0803 38.3042 14.3129 37.9616 13.5313 38.0485L11.6883 38.2532C7.54065 38.714 4.03601 35.2094 4.49685 31.0616L4.70163 29.2187C4.78846 28.4372 4.44582 27.6696 3.80589 27.2127L3.22703 26.7992C-0.409009 24.2019 -0.409009 18.7981 3.22703 16.2009L3.80589 15.7874C4.44582 15.3303 4.78846 14.5629 4.70163 13.7813L4.49685 11.9383C4.03601 7.79065 7.54065 4.28601 11.6883 4.74685L13.5313 4.95163C14.3129 5.03846 15.0803 4.69582 15.5374 4.05589L15.9509 3.47703ZM29.2971 15.6237C30.1448 16.4714 30.1448 17.8459 29.2971 18.6935L21.0073 26.9833C19.9426 28.0482 18.216 28.0482 17.1513 26.9833L13.203 23.0349C12.3552 22.1873 12.3552 20.8128 13.203 19.9651C14.0507 19.1175 15.4251 19.1175 16.2728 19.9651L19.0793 22.7716L26.2273 15.6237C27.0749 14.776 28.4494 14.776 29.2971 15.6237Z" fill="#0A1053"/>
</svg>
