<svg width="115" height="72" viewBox="0 0 115 72" fill="none" xmlns="http://www.w3.org/2000/svg">
<g id="CLIMES SVG 1">
<g id="Group">
<path id="Vector" fill-rule="evenodd" clip-rule="evenodd" d="M14.0583 29.9163C12.0223 22.3262 6.37811 18.8219 3.98194 9.26497C3.15783 5.98237 3.10935 2.78979 2.88081 -0.575928C2.58302 5.6638 2.51377 11.6888 5.75483 17.3122C13.435 30.7543 14.2661 31.2529 8.84353 40.6437C2.64535 51.1356 13.1303 62.3685 17.8049 72.5764C15.5542 64.5638 10.8865 57.5553 8.81583 49.8336C6.90443 42.1811 16.0805 37.4857 14.0583 29.9233V29.9163Z" fill="white"/>
<path id="Vector_2" fill-rule="evenodd" clip-rule="evenodd" d="M16.8767 19.3483C16.5374 19.5768 16.1773 19.7015 15.8033 19.7015C14.1204 19.7015 12.7631 17.2222 12.7631 14.1612C12.7631 13.0462 12.9431 12.0005 13.2548 11.1279C13.0886 11.7443 12.9847 12.5061 13.0886 13.351C13.1786 14.1266 13.421 14.7707 13.6772 15.2693C13.788 17.6308 14.903 19.4799 16.2534 19.4799C16.4681 19.4799 16.6759 19.4314 16.8767 19.3414V19.3483Z" fill="white"/>
</g>
<g id="Group_2">
<path id="Vector_3" fill-rule="evenodd" clip-rule="evenodd" d="M18.8369 14.168V14.5419C18.7331 12.1527 17.6181 10.2621 16.2469 10.2621C14.8756 10.2621 13.8645 11.9726 13.6845 14.2026C13.5668 13.5793 13.4975 12.8591 13.5321 12.0696C13.5529 11.5363 13.6222 11.0446 13.7122 10.6014C13.8368 9.99198 14.1416 9.4241 14.6333 9.05013C14.9934 8.77312 15.3881 8.62769 15.7967 8.62769C17.4726 8.62769 18.83 11.1139 18.83 14.1749L18.8369 14.168Z" fill="white"/>
<path id="Vector_4" fill-rule="evenodd" clip-rule="evenodd" d="M22.5422 14.6804C23.5325 19.9367 22.0159 23.5864 20.4439 26.2042C16.7596 32.3677 15.3814 34.7362 18.7887 40.6504C20.707 43.9815 19.6128 48.7808 15.9424 55.6507C19.2458 50.5537 23.8026 45.796 20.0145 38.8014C18.3039 35.8442 18.8718 33.7528 19.6682 32.0769C22.2791 26.5989 25.7625 20.7678 22.5353 14.6804H22.5422Z" fill="white"/>
</g>
<g id="Group_3">
<g id="Group_4">
<path id="Vector_5" fill-rule="evenodd" clip-rule="evenodd" d="M42.6947 40.4842C42.9163 39.7224 43.131 38.9606 43.3526 38.1988C35.6308 42.077 29.6196 39.1268 31.1086 31.3566C33.0269 23.2539 40.5617 21.8966 46.1158 25.6155C46.4343 24.819 46.7529 24.0157 47.0715 23.2193C38.6295 19.7566 29.2803 23.1985 27.5282 31.9383C25.7068 41.7446 34.4327 43.5036 42.6947 40.4772V40.4842Z" fill="white"/>
<path id="Vector_6" fill-rule="evenodd" clip-rule="evenodd" d="M52.4799 21.9102H49.1973C49.5782 22.3465 47.1959 30.3314 46.1917 34.535C45.0629 39.4797 47.6183 41.5019 51.7805 41.8274C51.8705 41.2803 51.9605 40.7263 52.0436 40.1792C49.9314 39.8814 48.4147 38.5587 49.1142 35.4423C50.2361 30.9339 51.3511 26.4186 52.473 21.9102H52.4799Z" fill="white"/>
<path id="Vector_7" fill-rule="evenodd" clip-rule="evenodd" d="M60.0082 28.5171H56.7256C57.1065 28.9534 54.7242 36.9383 53.72 41.142C53.6646 41.3774 53.623 41.606 53.5815 41.8276H56.6979L60.0013 28.5171H60.0082Z" fill="white"/>
<path id="Vector_8" fill-rule="evenodd" clip-rule="evenodd" d="M68.8103 28.7941C71.3865 28.7941 72.5638 29.3758 73.7065 30.5254C75.2301 29.1404 77.1969 28.6071 79.4684 28.6556C84.787 28.6556 85.1194 31.9936 84.2122 36.2873C83.8175 38.1364 83.3119 39.9924 82.8549 41.8345H79.7385C79.7731 41.6129 79.8216 41.3844 79.877 41.1489C80.2717 39.4799 80.7565 37.8386 81.1512 36.1696C82.01 32.5546 81.8299 29.9645 78.3949 30.3108C75.8118 30.6224 75.0985 32.1321 74.3713 35.0338L72.6885 41.8276H69.5721C69.6067 41.606 69.6552 41.3774 69.7106 41.142C70.0915 39.5422 70.6732 37.3954 71.2272 35.3247C72.086 32.0352 71.3103 30.1168 68.2909 30.4077C65.957 30.6778 64.9667 32.423 64.2257 35.0338C63.5955 37.2638 63.083 39.5699 62.529 41.8207H59.4126C59.4472 41.599 59.4957 41.3705 59.5511 41.1351C60.0428 39.0644 60.5761 36.8067 61.2409 34.7568C62.4597 30.9964 64.6966 28.7872 68.8311 28.7872L68.8103 28.7941Z" fill="white"/>
<path id="Vector_9" fill-rule="evenodd" clip-rule="evenodd" d="M59.786 22.1321C60.8802 22.1321 61.5658 23.0185 61.3165 24.1058C61.0741 25.2 59.9869 26.0795 58.8996 26.0795C57.8123 26.0795 57.1198 25.1931 57.3622 24.1058C57.6045 23.0116 58.6918 22.1321 59.7791 22.1321H59.786Z" fill="white"/>
<path id="Vector_10" fill-rule="evenodd" clip-rule="evenodd" d="M96.4422 34.4592H89.5376C89.9878 32.7695 91.8299 30.4703 93.9421 30.4703C95.8466 30.4703 96.9685 32.4855 96.4422 34.4592ZM95.2164 39.8887V40.9414C90.5418 43.2406 85.5279 40.9414 86.3104 36.0313C87.2661 31.2805 90.4449 28.822 94.5031 28.822C98.5613 28.822 100.175 32.2154 99.0046 36.2044H89.1221C88.1733 39.7433 91.082 41.4192 95.2164 39.8956V39.8887Z" fill="white"/>
<path id="Vector_11" fill-rule="evenodd" clip-rule="evenodd" d="M99.8981 41.2182C99.9742 40.5396 100.044 39.854 100.12 39.1753C102.564 41.0105 106.159 40.7127 107.197 38.4897C108.423 35.4771 99.5657 35.9965 102.017 31.0311C103.707 27.7554 108.97 27.236 111.54 29.279C111.456 29.8884 111.373 30.4978 111.29 31.1073C109.226 29.002 105.064 29.0297 104.476 31.2111C103.797 33.7527 111.055 33.7735 109.974 37.8248C108.901 41.8277 104.51 42.5895 99.8981 41.2182Z" fill="white"/>
</g>
<g id="Group_5">
<path id="Vector_12" d="M28 50.3151C28 49.3401 28.7383 48.6396 29.7417 48.6396C30.2529 48.6396 30.6883 48.81 30.9912 49.1508L30.6883 49.4443C30.4327 49.1792 30.1298 49.0562 29.7607 49.0562C29.0223 49.0562 28.4733 49.5957 28.4733 50.3151C28.4733 51.0345 29.0223 51.5741 29.7607 51.5741C30.1204 51.5741 30.4327 51.451 30.6883 51.1765L30.9912 51.47C30.6883 51.8107 30.2529 51.9811 29.7417 51.9811C28.7478 51.9811 28.0095 51.2712 28.0095 50.3057L28 50.3151Z" fill="white"/>
<path id="Vector_13" d="M31.6544 48.6777H32.1277V51.5554H33.9072V51.9624H31.6638V48.6777H31.6544Z" fill="white"/>
<path id="Vector_14" d="M34.9667 47.7974H35.5347L34.749 48.4032H34.3231L34.9573 47.7974H34.9667ZM34.4461 48.6777H34.9194V51.9624H34.4461V48.6777Z" fill="white"/>
<path id="Vector_15" d="M38.7154 48.6777V51.9624H38.3273L36.3584 49.5107V51.9624H35.8851V48.6777H36.2732L38.2421 51.1294V48.6777H38.7154Z" fill="white"/>
<path id="Vector_16" d="M39.7092 48.6777H40.1825V51.9624H39.7092V48.6777Z" fill="white"/>
<path id="Vector_17" d="M40.8926 50.3151C40.8926 49.3401 41.631 48.6396 42.6344 48.6396C43.1455 48.6396 43.581 48.81 43.8839 49.1508L43.581 49.4443C43.3254 49.1792 43.0225 49.0562 42.6533 49.0562C41.915 49.0562 41.3659 49.5957 41.3659 50.3151C41.3659 51.0345 41.915 51.5741 42.6533 51.5741C43.013 51.5741 43.3254 51.451 43.581 51.1765L43.8839 51.47C43.581 51.8107 43.1455 51.9811 42.6344 51.9811C41.6404 51.9811 40.9021 51.2712 40.9021 50.3057L40.8926 50.3151Z" fill="white"/>
<path id="Vector_18" d="M46.5626 51.1389H44.8209L44.4612 51.9624H43.9785L45.4646 48.6777H45.9284L47.4241 51.9624H46.9318L46.5721 51.1389H46.5626ZM46.4017 50.7602L45.6918 49.151L44.9818 50.7602H46.4017Z" fill="white"/>
<path id="Vector_19" d="M52.2144 51.9526V49.5578L51.0216 51.5551H50.8039L49.6207 49.5767V51.9526H49.1663V48.668H49.5544L50.927 50.9777L52.2806 48.668H52.6687V51.9526H52.2238H52.2144Z" fill="white"/>
<path id="Vector_20" d="M56.0284 51.5459V51.9529H53.6429V48.6682H55.9621V49.0753H54.1162V50.0881H55.7633V50.4857H54.1162V51.5459H56.0284ZM54.8735 48.4032H54.4475L55.0818 47.7974H55.6497L54.8641 48.4032H54.8735Z" fill="white"/>
<path id="Vector_21" d="M56.7861 48.6774H58.1681C59.2188 48.6774 59.9382 49.34 59.9382 50.315C59.9382 51.29 59.2188 51.9526 58.1681 51.9526H56.7861V48.668V48.6774ZM58.1492 51.5456C58.9632 51.5456 59.4839 51.0534 59.4839 50.315C59.4839 49.5767 58.9632 49.0845 58.1492 49.0845H57.2594V51.5551H58.1492V51.5456Z" fill="white"/>
<path id="Vector_22" d="M60.6667 48.6777H61.14V51.9624H60.6667V48.6777Z" fill="white"/>
<path id="Vector_23" d="M61.8499 50.3151C61.8499 49.3401 62.5882 48.6396 63.5916 48.6396C64.1027 48.6396 64.5382 48.81 64.8411 49.1508L64.5382 49.4443C64.2826 49.1792 63.9797 49.0562 63.6105 49.0562C62.8722 49.0562 62.3231 49.5957 62.3231 50.3151C62.3231 51.0345 62.8722 51.5741 63.6105 51.5741C63.9702 51.5741 64.2826 51.451 64.5382 51.1765L64.8411 51.47C64.5382 51.8107 64.1027 51.9811 63.5916 51.9811C62.5977 51.9811 61.8593 51.2712 61.8593 50.3057L61.8499 50.3151Z" fill="white"/>
<path id="Vector_24" d="M67.5199 51.1389H65.7781L65.4184 51.9624H64.9357L66.4218 48.6777H66.8856L68.3813 51.9624H67.889L67.5293 51.1389H67.5199ZM67.3589 50.7602L66.649 49.151L65.9391 50.7602H67.3589Z" fill="white"/>
<path id="Vector_25" d="M72.509 51.5456V51.9526H70.1235V48.668H72.4427V49.075H70.5968V50.0879H72.2439V50.4854H70.5968V51.5456H72.509Z" fill="white"/>
<path id="Vector_26" d="M72.9634 51.5837L73.1338 51.2146C73.3799 51.4323 73.7964 51.5932 74.2129 51.5932C74.7808 51.5932 75.027 51.3755 75.027 51.0821C75.027 50.2774 73.0391 50.7886 73.0391 49.5675C73.0391 49.0563 73.4367 48.6304 74.2981 48.6304C74.6862 48.6304 75.0838 48.7345 75.3488 48.9238L75.1973 49.3025C74.9134 49.1226 74.5915 49.0374 74.2981 49.0374C73.7396 49.0374 73.5029 49.2741 73.5029 49.558C73.5029 50.3626 75.4908 49.8609 75.4908 51.0631C75.4908 51.5648 75.0837 52.0002 74.2223 52.0002C73.7207 52.0002 73.2284 51.8299 72.9634 51.5837Z" fill="white"/>
<path id="Vector_27" d="M78.8316 49.8133C78.8316 50.5233 78.3109 50.9587 77.459 50.9587H76.6449V51.9526H76.1716V48.668H77.4495C78.3015 48.668 78.8221 49.1034 78.8221 49.8133H78.8316ZM78.3583 49.8133C78.3583 49.34 78.0459 49.075 77.4401 49.075H76.6449V50.5517H77.4401C78.0364 50.5517 78.3583 50.2866 78.3583 49.8133Z" fill="white"/>
<path id="Vector_28" d="M81.8987 51.5456V51.9526H79.5133V48.668H81.8325V49.075H79.9866V50.0879H81.6337V50.4854H79.9866V51.5456H81.8987Z" fill="white"/>
<path id="Vector_29" d="M82.3823 50.3151C82.3823 49.3401 83.1206 48.6396 84.124 48.6396C84.6352 48.6396 85.0706 48.81 85.3735 49.1508L85.0706 49.4443C84.815 49.1792 84.5121 49.0562 84.1429 49.0562C83.4046 49.0562 82.8556 49.5957 82.8556 50.3151C82.8556 51.0345 83.4046 51.5741 84.1429 51.5741C84.5026 51.5741 84.815 51.451 85.0706 51.1765L85.3735 51.47C85.0706 51.8107 84.6352 51.9811 84.124 51.9811C83.1301 51.9811 82.3917 51.2712 82.3917 50.3057L82.3823 50.3151Z" fill="white"/>
<path id="Vector_30" d="M86.0352 48.6777H86.5085V51.9624H86.0352V48.6777Z" fill="white"/>
<path id="Vector_31" d="M89.5854 51.1389H87.8437L87.484 51.9624H87.0012L88.4874 48.6777H88.9512L90.4468 51.9624H89.9546L89.5949 51.1389H89.5854ZM89.4245 50.7602L88.7146 49.151L88.0046 50.7602H89.4245Z" fill="white"/>
<path id="Vector_32" d="M90.9304 48.6777H91.4037V51.5554H93.1832V51.9624H90.9398V48.6777H90.9304Z" fill="white"/>
<path id="Vector_33" d="M93.7123 48.6777H94.1856V51.9624H93.7123V48.6777Z" fill="white"/>
<path id="Vector_34" d="M97.6226 51.5456V51.9526H94.8775V51.6308L96.9411 49.075H94.9154V48.668H97.5658V48.9898L95.5117 51.5456H97.6226Z" fill="white"/>
<path id="Vector_35" d="M100.339 51.1389H98.5975L98.2378 51.9624H97.755L99.2412 48.6777H99.705L101.201 51.9624H100.708L100.349 51.1389H100.339ZM100.178 50.7602L99.4684 49.151L98.7584 50.7602H100.178Z" fill="white"/>
<path id="Vector_36" d="M101.683 48.6774H103.065C104.116 48.6774 104.835 49.34 104.835 50.315C104.835 51.29 104.116 51.9526 103.065 51.9526H101.683V48.668V48.6774ZM103.037 51.5456C103.851 51.5456 104.371 51.0534 104.371 50.315C104.371 49.5767 103.851 49.0845 103.037 49.0845H102.147V51.5551H103.037V51.5456Z" fill="white"/>
<path id="Vector_37" d="M107.599 51.1389H105.857L105.498 51.9624H105.015L106.501 48.6777H106.965L108.461 51.9624H107.968L107.609 51.1389H107.599ZM107.438 50.7602L106.728 49.151L106.018 50.7602H107.438Z" fill="white"/>
</g>
</g>
</g>
</svg>
