<svg width="50" height="39" viewBox="0 0 50 39" fill="none" xmlns="http://www.w3.org/2000/svg">
<g id="Group">
<path id="Vector" d="M41.7508 22.7555C44.8643 22.7555 47.3888 20.0671 47.3888 16.7492C47.3888 13.4314 44.8642 10.7411 41.7508 10.7411C38.6381 10.7411 36.1135 13.4314 36.1135 16.7492C36.1136 20.0671 38.6381 22.7555 41.7508 22.7555Z" fill="#0A1053"/>
<path id="Vector_2" d="M48.9697 28.5448C48.7185 26.9362 47.4707 24.6849 46.5263 23.6791C46.4019 23.5458 45.8458 23.515 45.6957 23.6142C44.5474 24.3667 43.1985 24.8097 41.7509 24.8097C40.3049 24.8097 38.9559 24.3667 37.8076 23.6142C37.6567 23.515 37.1015 23.5458 36.977 23.6791C36.713 23.9605 36.4249 24.335 36.144 24.7694C36.904 26.2941 37.5067 27.9137 37.7241 29.3084C37.9415 30.7066 37.871 32.0302 37.5194 33.2369C38.768 33.7183 40.2654 33.9296 41.7508 33.9296C45.6252 33.9296 49.59 32.4981 48.9697 28.5448Z" fill="#0A1053"/>
<path id="Vector_3" d="M24.3721 20.2211C29.418 20.2211 33.5089 15.8617 33.5089 10.4847C33.5089 5.10943 29.418 0.75 24.3721 0.75C19.3272 0.75 15.2378 5.10943 15.2378 10.4847C15.2378 15.8617 19.3271 20.2211 24.3721 20.2211Z" fill="#0A1053"/>
<path id="Vector_4" d="M32.1087 21.7123C31.9104 21.5019 31.0101 21.4482 30.7653 21.6096C28.9028 22.8308 26.717 23.5457 24.3722 23.5457C22.0291 23.5457 19.8423 22.8308 17.9807 21.6096C17.736 21.4481 16.8357 21.5019 16.6374 21.7123C15.1031 23.3456 13.0809 26.997 12.6741 29.6C11.671 36.0118 18.0979 38.3266 24.3722 38.3266C30.6482 38.3266 37.075 36.0118 36.0719 29.6C35.6651 26.997 33.6429 23.3456 32.1087 21.7123Z" fill="#0A1053"/>
<path id="Vector_5" d="M7.28309 22.7555C10.3958 22.7555 12.9203 20.0671 12.9203 16.7492C12.9203 13.4314 10.3958 10.7411 7.28309 10.7411C4.16951 10.7411 1.64502 13.4314 1.64502 16.7492C1.64502 20.0671 4.16951 22.7555 7.28309 22.7555Z" fill="#0A1053"/>
<path id="Vector_6" d="M11.0226 29.3084C11.2538 27.8436 11.9061 26.1188 12.7238 24.524C12.4959 24.1922 12.2681 23.9032 12.0578 23.6791C11.9334 23.5458 11.3781 23.515 11.2272 23.6142C10.0789 24.3667 8.72995 24.8097 7.28325 24.8097C5.83636 24.8097 4.48658 24.3667 3.33916 23.6142C3.18899 23.515 2.63218 23.5458 2.50778 23.6791C1.5609 24.6847 0.316373 26.9362 0.0643072 28.5448C-0.555132 32.4981 3.40897 33.9295 7.28325 33.9295C8.66588 33.9295 10.0621 33.7481 11.2538 33.3335C10.8783 32.1022 10.7988 30.7476 11.0226 29.3084Z" fill="#0A1053"/>
</g>
</svg>
